<svg
    version="1.0" 
    xmlns="http://www.w3.org/2000/svg" 
    width="700.000000pt" 
    height="236.000000pt" 
    viewBox="0 0 700.000000 236.000000" 
    preserveAspectRatio="xMidYMid meet">
    <g transform="translate(0.000000,236.000000) scale(0.100000,-0.100000)" fill="#000000" stroke="none">
    <path d="M4905 1601 c-4 -37 -3 -67 4 -79 16 -29 14 -62 -4 -62 -18 0 -19 -6
    -41 -223 -10 -97 -21 -182 -25 -189 -5 -8 -12 -6 -24 6 -10 10 -25 14 -36 11
    -21 -7 -27 10 -6 18 10 4 10 6 0 6 -7 1 -13 5 -13 10 0 5 9 7 20 4 11 -3 20
    -9 20 -14 0 -5 4 -9 9 -9 5 0 8 28 7 62 l-1 63 -56 7 c-30 4 -60 8 -65 9 -5 1
    -21 -1 -36 -5 -28 -8 -28 -9 -28 -98 l0 -91 -37 8 c-21 4 -47 7 -58 6 -11 0
    -35 9 -53 20 -18 10 -51 20 -73 21 -31 1 -39 5 -39 20 0 10 -7 19 -15 19 -28
    3 -33 4 -40 10 -3 4 -6 86 -6 183 1 172 0 176 -20 176 -12 0 -23 8 -26 19 -6
    23 -31 31 -100 31 -42 0 -53 -3 -58 -19 -3 -11 -16 -21 -28 -23 -21 -3 -22 -8
    -23 -93 -1 -55 3 -93 10 -98 8 -6 8 -10 -1 -13 -7 -3 -10 -11 -7 -17 3 -9 -15
    -11 -71 -7 l-75 5 0 -44 c0 -51 19 -111 35 -111 6 0 16 5 23 12 9 9 12 9 12 0
    0 -7 -3 -12 -8 -12 -4 0 -8 -27 -9 -59 -2 -49 1 -61 15 -64 16 -4 16 -5 0 -6
    -15 -1 -18 -16 -20 -118 -3 -105 -4 -114 -18 -98 -11 13 -11 16 -2 11 11 -7
    13 2 8 45 -3 30 -5 55 -6 57 0 1 -11 2 -25 2 -27 0 -32 -9 -13 -28 9 -9 8 -12
    -4 -12 -9 0 -18 5 -20 12 -5 15 -45 21 -53 8 -4 -6 -13 -7 -23 -1 -12 6 -24 4
    -40 -9 -25 -21 -28 -45 -8 -66 13 -12 15 -11 19 8 l4 23 2 -22 c0 -13 5 -23
    11 -23 5 0 7 -7 4 -15 -4 -10 -13 -13 -26 -9 -25 8 -48 -12 -49 -45 -3 -65
    -18 81 -17 170 0 55 -2 103 -6 106 -3 4 -6 -1 -6 -10 0 -14 -11 -17 -70 -17
    -40 0 -70 4 -70 10 0 6 5 10 10 10 6 0 10 7 10 16 0 14 10 16 65 11 57 -4 66
    -2 64 12 -1 9 1 24 6 34 13 31 -3 67 -30 67 -18 0 -25 5 -25 20 0 11 -6 20
    -14 20 -8 0 -18 5 -22 11 -5 8 3 10 25 7 34 -5 39 3 15 23 -11 9 -15 28 -13
    73 2 45 -1 61 -12 64 -8 3 -25 13 -39 22 -23 16 -29 16 -71 3 l-47 -15 -6 -69
    c-4 -38 -4 -73 -1 -79 3 -5 24 -10 45 -10 21 0 42 -4 45 -10 4 -6 -10 -10 -35
    -10 -67 0 -44 -24 27 -30 74 -6 95 -20 30 -20 -46 0 -47 -1 -47 -30 0 -16 -5
    -30 -10 -30 -6 0 -9 12 -8 26 2 15 -3 29 -9 31 -9 3 -13 -9 -14 -39 -1 -23 -3
    -69 -4 -100 -2 -44 0 -58 11 -58 10 0 14 15 14 59 0 33 5 63 10 66 11 7 12 -7
    10 -109 -1 -46 2 -66 9 -61 6 3 14 -1 17 -10 4 -9 13 -14 20 -11 7 3 16 0 20
    -6 4 -6 3 -8 -4 -4 -6 3 -13 2 -17 -4 -3 -5 -15 -10 -25 -10 -17 0 -19 -7 -18
    -55 1 -30 5 -55 10 -55 4 0 8 5 8 11 0 5 5 7 10 4 8 -5 7 -11 -1 -21 -6 -8
    -14 -12 -17 -9 -3 3 -13 -2 -22 -10 -28 -25 -50 -8 -52 39 -1 40 -1 40 -5 6
    -4 -40 -37 -70 -56 -51 -6 6 -19 11 -29 11 -10 0 -18 5 -18 10 0 6 9 10 20 10
    22 0 36 22 25 40 -5 8 -11 7 -22 -1 -12 -10 -16 -10 -24 2 -15 24 -10 31 19
    27 l27 -3 -1 160 c-1 88 -2 202 -3 253 -1 68 -4 92 -13 91 -27 -3 -38 2 -38
    16 0 19 -10 19 -44 1 -36 -18 -71 -15 -70 7 1 9 -2 17 -7 17 -5 0 -9 -20 -9
    -45 0 -34 4 -45 16 -45 11 0 14 6 9 20 -4 14 -2 20 8 20 8 0 18 -11 21 -25 4
    -14 10 -25 15 -25 5 0 12 11 15 25 4 14 11 25 16 25 6 0 8 -11 4 -27 -7 -25
    -6 -26 25 -20 24 5 31 3 28 -6 -2 -7 -22 -12 -48 -13 -24 0 -59 -1 -76 -2
    l-33 -2 0 -93 c0 -77 3 -94 15 -94 8 0 15 4 15 9 0 4 7 8 15 8 8 0 15 -4 15
    -10 0 -5 5 -10 10 -10 6 0 10 9 10 20 0 22 7 25 30 10 22 -13 -16 -51 -49 -49
    -61 5 -66 1 -37 -26 28 -26 35 -55 13 -55 -7 0 -18 5 -25 12 -9 9 -12 6 -12
    -16 0 -25 3 -27 30 -24 17 1 34 -2 38 -8 8 -13 42 -15 42 -2 0 4 9 8 20 8 21
    0 28 -16 9 -22 -9 -3 -9 -10 0 -27 9 -17 10 -26 2 -34 -11 -11 -13 -6 -10 21
    1 14 -55 30 -74 20 -10 -5 -27 -6 -37 -3 -19 6 -20 1 -20 -64 0 -41 -4 -71
    -10 -71 -12 0 -13 14 -10 94 2 52 0 58 -15 52 -9 -3 -19 -6 -21 -6 -2 0 -4
    -21 -4 -46 0 -27 4 -43 10 -39 6 3 10 -3 10 -14 0 -12 -5 -21 -10 -21 -8 0 -8
    -6 -1 -17 7 -13 5 -23 -6 -35 -14 -15 -14 -18 -2 -18 8 0 20 5 27 12 15 15 62
    -5 62 -27 0 -12 -15 -15 -77 -15 -43 0 -126 -1 -184 -4 -112 -4 -155 5 -106
    23 20 8 33 8 46 -1 14 -8 25 -7 49 5 17 8 40 13 51 10 24 -6 35 11 16 27 -9 7
    -15 29 -15 51 0 31 -6 42 -33 63 -19 15 -40 26 -47 26 -8 0 -24 9 -36 21 -14
    13 -38 21 -69 23 -26 2 -51 10 -56 17 -8 12 -11 12 -19 -1 -14 -21 -13 -143 2
    -158 19 -19 -8 -23 -123 -20 l-104 3 -3 60 c-2 32 -8 66 -15 74 -10 12 -9 13
    2 6 11 -6 13 -2 9 19 -5 26 6 45 16 27 3 -5 8 -26 11 -47 12 -97 18 -123 26
    -118 5 3 9 23 9 45 0 22 8 52 18 66 9 15 12 24 5 20 -7 -5 -6 4 4 23 8 17 12
    37 10 45 -3 7 0 16 8 19 9 3 12 0 9 -8 -3 -8 -1 -17 5 -21 6 -3 8 -17 5 -31
    -5 -18 -2 -24 10 -24 9 0 16 7 16 16 0 8 4 13 8 10 4 -2 5 -32 2 -66 -6 -62 5
    -90 31 -74 19 11 4 163 -17 179 -19 13 -10 40 9 28 7 -4 42 -6 79 -4 37 1 72
    0 77 -3 18 -12 0 -36 -28 -37 -61 -2 46 -17 128 -18 47 0 89 -5 94 -10 6 -6 9
    -44 8 -86 -2 -86 2 -99 29 -85 17 9 18 28 19 289 0 230 -2 280 -14 285 -7 2
    -15 22 -17 43 l-3 38 -68 11 c-47 8 -81 8 -112 1 l-45 -10 0 -49 c0 -34 -5
    -50 -15 -54 -9 -4 -15 -19 -15 -40 0 -35 -1 -34 73 -49 9 -2 15 1 11 6 -3 5 8
    9 25 9 16 0 33 -5 37 -11 14 -23 -18 -32 -116 -34 l-100 -2 0 48 c0 76 -3 79
    -82 79 -51 0 -74 -4 -82 -15 -7 -9 -40 -17 -91 -22 l-80 -8 -1 -30 c-2 -133
    -4 -145 -20 -145 -14 0 -16 9 -12 50 4 35 1 53 -8 61 -8 6 -14 18 -14 25 0 11
    -17 14 -66 14 -40 0 -63 4 -59 10 7 12 -14 54 -23 45 -4 -4 -8 -11 -8 -16 -1
    -5 -2 -12 -3 -16 0 -3 -10 2 -21 12 -12 11 -18 26 -15 35 4 12 -1 19 -13 22
    -13 4 -18 0 -18 -13 1 -23 -19 -24 -20 -1 -2 37 -5 41 -19 36 -8 -4 -12 -10
    -9 -15 3 -5 1 -9 -5 -9 -6 0 -8 -7 -5 -15 4 -9 0 -15 -10 -15 -9 0 -16 7 -16
    15 0 8 5 15 10 15 20 0 9 29 -12 33 -13 3 0 5 27 4 28 0 64 3 82 7 25 6 34 3
    42 -11 9 -16 11 -17 26 -2 42 42 -29 75 -143 65 -40 -3 -78 -8 -83 -11 -5 -3
    -8 -33 -8 -66 1 -64 -4 -75 -36 -81 -16 -3 -20 -11 -20 -42 0 -30 -5 -41 -20
    -47 -14 -5 -6 -8 28 -8 30 -1 54 5 63 13 11 12 21 13 44 4 23 -7 34 -7 45 2
    19 16 19 30 0 30 -8 0 -15 5 -15 10 0 6 5 10 11 10 6 0 9 9 6 19 -4 16 -1 18
    17 12 17 -7 20 -15 18 -43 -3 -31 -1 -34 25 -33 15 0 38 6 51 13 20 12 24 10
    21 -15 0 -5 -6 -7 -14 -5 -7 1 -12 -5 -11 -15 0 -10 -3 -18 -9 -18 -18 -1 -35
    -16 -30 -26 4 -5 -1 -9 -11 -9 -12 0 -14 3 -5 13 8 10 7 17 -1 25 -15 15 -35
    15 -40 1 -3 -8 -10 -8 -26 2 -16 10 -27 11 -39 3 -10 -5 -43 -9 -73 -8 -30 2
    -62 3 -71 4 -14 0 -15 15 -11 127 4 109 3 125 -10 121 -8 -4 -49 2 -91 11 -41
    10 -81 15 -87 11 -6 -4 -10 -35 -9 -81 3 -136 6 -129 -51 -129 -38 0 -50 -4
    -50 -15 0 -8 -9 -15 -20 -15 -20 0 -27 -16 -32 -75 -3 -30 -4 -30 -70 -33
    l-66 -3 -7 -50 -7 -51 -36 7 c-22 4 -37 2 -42 -5 -5 -8 -10 -9 -14 -2 -3 6 1
    18 10 27 31 31 0 41 -113 36 -32 -1 -33 -2 -33 -46 0 -25 -3 -45 -7 -45 -5 0
    -25 15 -45 34 -26 24 -50 36 -83 40 -66 10 -126 -1 -132 -25 -4 -16 -8 -17
    -20 -8 -10 9 -17 9 -25 1 -8 -8 -17 -8 -31 0 -25 13 -140 5 -145 -10 -2 -7
    -10 -12 -18 -12 -8 0 -14 -3 -14 -7 0 -5 -37 -8 -82 -9 -93 0 -122 -6 -124
    -22 -1 -7 -2 -22 -3 -34 -1 -21 -3 -21 -12 -5 -5 9 -7 22 -4 27 3 6 -2 13 -12
    17 -10 3 -26 13 -36 21 -14 13 -21 13 -41 2 -31 -16 -48 -5 -40 26 8 31 -19
    64 -53 64 -18 0 -28 -9 -39 -35 -17 -41 -17 -45 -3 -45 5 0 15 13 20 30 13 36
    36 39 49 6 14 -37 -2 -80 -30 -84 -13 -2 -29 2 -34 10 -6 8 -26 21 -43 29 -18
    7 -33 20 -33 26 0 19 21 16 37 -4 12 -16 13 -15 11 12 -2 22 -9 31 -25 33 -19
    3 -23 10 -23 38 0 24 -5 34 -15 34 -8 0 -15 7 -15 15 0 12 -13 15 -55 15 l-55
    0 0 -221 0 -221 26 6 c21 6 25 4 22 -11 -3 -12 -12 -17 -26 -16 l-22 3 0 -320
    0 -320 99 0 c113 0 137 5 120 26 -6 8 -8 14 -3 14 5 0 4 4 -3 8 -10 6 -9 14 2
    35 8 15 9 27 4 27 -6 0 -7 4 -4 10 3 5 2 10 -3 10 -5 0 -9 7 -9 15 0 8 4 15 9
    15 4 0 8 -5 8 -12 0 -6 3 -9 6 -6 3 4 0 16 -6 28 -9 18 -9 24 0 30 9 5 9 13 2
    26 -11 20 -11 29 -10 129 0 96 1 99 20 113 9 7 15 19 12 27 -4 10 0 15 11 15
    12 0 15 -5 10 -19 -4 -13 0 -23 10 -29 13 -7 17 -26 17 -88 1 -93 -11 -233
    -22 -253 -5 -8 -4 -25 1 -38 5 -15 5 -23 -2 -23 -6 0 -8 -4 -4 -9 3 -6 -3 -14
    -12 -20 -45 -26 20 -31 468 -31 l455 0 -2 93 c-1 50 -3 97 -4 102 -2 6 2 23 9
    39 9 23 9 31 -1 38 -10 6 -10 10 2 17 12 8 11 13 -5 31 -13 15 -15 20 -5 18
    10 -2 14 13 17 67 1 39 3 78 3 87 1 10 5 20 11 23 5 4 9 22 9 41 l0 34 50 0
    50 0 -3 -35 c-3 -20 0 -38 4 -41 5 -3 9 -30 9 -61 0 -45 3 -54 15 -49 20 7 36
    -52 21 -79 -10 -18 -11 -17 -14 15 -2 19 -8 39 -13 44 -8 9 -10 2 -13 -71 -1
    -12 5 -17 18 -15 11 2 17 -1 14 -10 -3 -7 -11 -13 -19 -13 -9 0 -13 -9 -12
    -25 1 -14 3 -38 4 -53 3 -47 19 -41 19 8 0 25 4 44 9 41 10 -6 13 -70 5 -98
    -3 -10 -13 -18 -22 -19 -11 0 -12 -3 -4 -6 15 -6 16 -33 1 -33 -6 0 -8 -7 -5
    -16 3 -8 2 -12 -4 -9 -11 7 -13 -24 -4 -49 6 -14 95 -16 904 -16 589 0 901 3
    905 10 3 6 1 10 -4 10 -8 0 -9 31 -6 93 3 50 7 153 10 227 6 184 16 281 26
    274 5 -2 7 -18 5 -34 -2 -18 2 -31 10 -34 8 -3 11 -12 8 -20 -8 -21 9 -26 50
    -15 31 9 41 8 57 -7 10 -9 17 -19 15 -23 -1 -3 14 -21 35 -39 l38 -33 15 30
    c9 16 13 37 10 45 -3 9 -1 16 5 16 6 0 11 11 11 25 0 32 17 32 32 0 6 -14 19
    -25 30 -25 10 0 18 -6 18 -13 0 -7 10 -24 21 -36 23 -24 37 -97 24 -128 -4
    -10 -9 -87 -12 -171 l-5 -152 85 0 85 0 -13 43 c-7 23 -15 67 -19 97 -3 30 -8
    77 -12 104 -4 35 -2 51 8 57 10 7 10 9 1 9 -18 0 -16 74 2 110 9 17 20 30 25
    30 6 0 10 6 10 14 0 28 73 31 106 5 5 -5 32 -11 60 -14 131 -13 145 -33 137
    -188 -5 -99 -8 -112 -35 -148 -16 -22 -51 -53 -78 -70 -28 -17 -50 -35 -50
    -40 0 -5 121 -9 289 -9 252 0 290 2 295 16 7 18 -11 103 -26 121 -7 9 -7 13 1
    13 8 0 8 6 1 20 -5 11 -15 29 -21 41 -7 15 -7 25 2 36 9 10 9 17 2 21 -5 4
    -11 14 -12 22 0 8 -3 35 -5 60 -3 25 -6 45 -6 45 -1 0 -3 21 -4 48 -2 34 3 52
    16 67 18 19 29 20 255 15 269 -5 271 -6 268 -78 -1 -23 -5 -53 -9 -65 -4 -13
    -9 -42 -10 -63 -1 -22 -10 -49 -19 -60 -20 -23 -21 -36 -4 -42 10 -4 10 -6 0
    -6 -7 -1 -13 -7 -13 -15 0 -7 -10 -16 -21 -19 -14 -4 -20 -11 -16 -21 13 -32
    -12 -24 -32 10 -18 30 -24 34 -36 24 -8 -7 -13 -15 -10 -19 2 -4 -2 -34 -10
    -67 -27 -113 -40 -104 155 -104 l169 0 -4 29 c-2 17 -8 38 -13 47 -6 11 -6 27
    -2 40 5 12 6 25 3 28 -4 4 -8 25 -9 49 -13 292 -14 313 -1 328 20 26 154 29
    1122 30 l875 0 0 41 c0 37 -2 40 -23 35 -12 -4 -28 -3 -35 2 -10 6 -4 14 22
    29 l36 21 0 97 0 96 -25 -4 c-13 -3 -22 -1 -19 3 3 5 -2 9 -11 9 -9 0 -23 7
    -32 15 -14 14 -13 15 13 9 16 -4 33 -10 38 -15 21 -19 36 4 36 56 0 57 -12 70
    -55 59 -41 -10 -65 11 -65 59 0 62 -7 67 -91 68 -139 0 -154 -5 -144 -50 3
    -14 1 -33 -5 -41 -7 -11 -10 -7 -10 18 0 25 -5 35 -25 42 -14 5 -35 9 -48 7
    -19 -2 -23 4 -27 42 -9 79 -69 81 -68 1 0 -45 -10 -69 -22 -50 -13 21 -64 -2
    -68 -31 -2 -13 -9 -30 -15 -38 -9 -12 -9 -13 0 -7 9 5 11 2 7 -8 -7 -17 -24
    -22 -24 -7 0 18 -41 23 -91 11 -31 -8 -49 -17 -49 -27 0 -8 -6 -13 -12 -11 -9
    3 -15 35 -18 96 -5 98 -20 132 -44 100 -16 -22 -27 -23 -19 -2 4 12 0 14 -23
    8 -38 -9 -44 -13 -44 -28 0 -8 -9 -16 -20 -19 -15 -4 -20 -14 -20 -41 0 -44
    -9 -45 -35 -6 -24 37 -32 37 -57 5 -19 -24 -24 -25 -77 -19 -50 5 -58 3 -76
    -16 -20 -22 -20 -22 0 -33 18 -10 18 -12 -12 -18 -37 -7 -83 -1 -83 12 0 5 10
    9 23 9 22 0 21 1 -3 13 -22 11 -25 19 -28 80 l-3 68 -45 -2 c-58 -3 -78 -25
    -71 -78 7 -52 -4 -66 -48 -63 -29 3 -37 -1 -44 -20 -6 -13 -10 -21 -11 -18 -1
    3 -3 14 -5 25 -2 10 -8 28 -14 40 -6 11 -11 31 -13 44 -5 37 -32 49 -57 27
    -12 -11 -21 -27 -21 -36 0 -9 -9 -25 -20 -35 -11 -10 -20 -26 -20 -35 0 -31
    -20 -39 -59 -23 -20 9 -72 20 -116 25 -44 5 -85 14 -92 21 -9 9 -83 530 -83
    585 0 6 -4 12 -9 12 -5 0 -12 -27 -16 -59z m-748 -153 c-3 -8 -6 -5 -6 6 -1
    11 2 17 5 13 3 -3 4 -12 1 -19z m53 -38 c0 -5 -2 -10 -4 -10 -3 0 -8 5 -11 10
    -3 6 -1 10 4 10 6 0 11 -4 11 -10z m47 -27 c-4 -3 -2 -12 4 -20 9 -10 6 -13
    -14 -13 -14 0 -29 5 -32 11 -4 6 -13 8 -21 5 -8 -3 -14 -1 -14 4 0 5 17 11 38
    13 20 2 39 4 41 5 2 1 1 -1 -2 -5z m-1334 -28 c-3 -9 -8 -14 -10 -11 -3 3 -2
    9 2 15 9 16 15 13 8 -4z m1317 -25 c0 -5 -7 -6 -17 -3 -11 4 -14 3 -9 -5 4 -7
    3 -12 -3 -12 -16 0 -22 18 -9 23 22 9 38 8 38 -3z m-670 -45 c0 -25 -4 -45
    -10 -45 -5 0 -10 20 -10 45 0 25 5 45 10 45 6 0 10 -20 10 -45z m-1513 9 c-9
    -9 -28 6 -21 18 4 6 10 6 17 -1 6 -6 8 -13 4 -17z m913 4 c0 -10 2 -10 8 0 9
    13 32 12 72 -6 30 -13 28 -14 -30 -17 -34 -3 -49 1 -63 16 -15 16 -15 19 -2
    19 8 0 15 -6 15 -12z m-1125 -8 c3 -5 1 -10 -4 -10 -6 0 -11 5 -11 10 0 6 2
    10 4 10 3 0 8 -4 11 -10z m2442 4 c-3 -3 -12 -4 -19 -1 -8 3 -5 6 6 6 11 1 17
    -2 13 -5z m-2215 -46 c-9 -9 -15 -9 -24 0 -9 9 -7 12 12 12 19 0 21 -3 12 -12z
    m1006 -10 c-3 -7 -20 -13 -40 -14 -19 0 -42 -4 -52 -7 -9 -4 -27 -2 -40 3 -17
    6 -26 5 -30 -3 -2 -7 -5 -5 -5 5 -1 22 12 26 97 27 55 1 73 -2 70 -11z m-1034
    -14 c3 -8 2 -12 -4 -9 -6 3 -10 10 -10 16 0 14 7 11 14 -7z m1946 -4 c0 -8
    -24 -20 -41 -20 -5 0 -9 5 -9 11 0 6 7 8 16 5 11 -4 15 -2 11 8 -4 10 -1 13 9
    9 7 -3 14 -9 14 -13z m-1989 -23 c-1 -12 -15 -9 -19 4 -3 6 1 10 8 8 6 -3 11
    -8 11 -12z m2066 -59 c-2 -13 -4 -3 -4 22 0 25 2 35 4 23 2 -13 2 -33 0 -45z
    m-2185 30 c-7 -7 -12 -8 -12 -2 0 14 12 26 19 19 2 -3 -1 -11 -7 -17z m598 2
    c0 -5 -5 -10 -11 -10 -5 0 -7 5 -4 10 3 6 8 10 11 10 2 0 4 -4 4 -10z m805 -9
    c0 -16 -32 -24 -41 -10 -8 14 6 30 24 27 10 -2 17 -10 17 -17z m2349 10 c3 -4
    3 -11 0 -14 -8 -8 -34 3 -34 14 0 11 27 12 34 0z m-3261 -15 c4 -10 1 -13 -8
    -9 -8 3 -12 9 -9 14 7 12 11 11 17 -5z m230 7 c-18 -2 -48 -2 -65 0 -18 2 -4
    4 32 4 36 0 50 -2 33 -4z m767 -3 c0 -5 -2 -10 -4 -10 -3 0 -8 5 -11 10 -3 6
    -1 10 4 10 6 0 11 -4 11 -10z m-334 -28 c-4 -3 -14 2 -24 12 -16 18 -16 18 6
    6 13 -6 21 -14 18 -18z m-556 -17 c0 -19 -4 -35 -9 -35 -11 0 -21 38 -14 56
    10 26 23 14 23 -21z m3128 -5 c-14 -22 -24 -25 -33 -10 -3 6 1 10 9 10 9 0 16
    5 16 10 0 6 5 10 10 10 6 0 5 -8 -2 -20z m-233 -8 c0 -20 -18 -18 -21 1 -1 10
    3 16 9 14 7 -2 12 -9 12 -15z m-3042 -13 c-6 -6 -26 -9 -44 -6 l-34 4 38 1
    c20 1 37 7 37 14 0 6 3 8 7 5 4 -4 2 -12 -4 -18z m403 -10 c1 -22 -2 -29 -13
    -25 -8 4 -18 6 -23 6 -10 0 -20 37 -12 44 3 3 15 6 26 6 16 0 21 -7 22 -31z
    m534 6 c0 -15 -6 -25 -14 -25 -16 0 -25 19 -18 38 8 22 32 13 32 -13z m-1294
    -1 c12 5 15 2 10 -10 -3 -8 -6 -20 -6 -25 0 -6 -4 -8 -9 -4 -5 3 -17 -2 -25
    -11 -14 -14 -19 -14 -45 -1 -21 11 -32 12 -40 4 -8 -8 -11 -8 -11 1 0 7 -10
    12 -22 13 -13 0 -17 3 -10 6 6 2 12 11 12 19 0 12 4 12 25 -2 23 -15 25 -15
    25 0 0 21 6 20 42 -5 32 -23 48 -20 23 4 -19 20 -20 33 0 17 8 -7 22 -9 31 -6z
    m2701 9 c-4 -3 -2 -12 4 -19 7 -8 7 -14 -1 -19 -8 -5 -6 -13 7 -27 18 -20 17
    -20 -7 -17 -19 3 -25 11 -27 34 -3 37 3 55 18 55 7 0 9 -3 6 -7z m57 -35 c-5
    -8 -10 -5 -14 8 -10 25 0 41 12 20 5 -9 6 -21 2 -28z m-2614 11 c0 -11 -4 -18
    -10 -14 -5 3 -7 12 -3 20 7 21 13 19 13 -6z m810 11 c0 -5 -4 -10 -10 -10 -5
    0 -10 5 -10 10 0 6 5 10 10 10 6 0 10 -4 10 -10z m1130 -6 c0 -10 -5 -12 -12
    -7 -7 4 -23 6 -35 4 -13 -1 -23 2 -23 8 0 6 16 11 35 11 25 0 35 -4 35 -16z
    m1580 1 c0 -12 -19 -12 -23 0 -4 9 -1 12 9 8 7 -3 14 -7 14 -8z m-3896 -21 c6
    -16 -10 -19 -20 -3 -4 8 -9 8 -17 0 -21 -21 -68 -7 -53 17 8 13 84 1 90 -14z
    m316 16 c0 -5 -4 -10 -10 -10 -5 0 -10 5 -10 10 0 6 5 10 10 10 6 0 10 -4 10
    -10z m4700 1 c0 -9 -52 -22 -60 -15 -7 7 23 24 43 24 9 0 17 -4 17 -9z m105
    -24 c0 -15 -4 -27 -10 -27 -5 0 -10 14 -10 30 0 17 5 29 10 27 6 -2 10 -16 10
    -30z m-281 14 c3 -5 -3 -11 -14 -14 -11 -3 -19 -11 -18 -17 2 -7 -7 -16 -19
    -21 -21 -7 -23 -5 -22 19 0 15 3 21 6 15 8 -20 23 -15 23 7 0 21 33 29 44 11z
    m-4794 -9 c0 -5 -7 -9 -15 -9 -8 0 -15 4 -15 9 0 4 7 8 15 8 8 0 15 -4 15 -8z
    m3841 -19 c1 -10 0 -44 -1 -75 -1 -47 1 -58 14 -58 9 0 16 -4 16 -10 0 -5 -4
    -10 -8 -10 -18 0 -32 26 -32 61 0 22 -7 45 -17 55 -13 13 -14 19 -5 22 6 2 12
    10 12 18 0 20 20 17 21 -3z m-3588 -13 c3 -11 2 -18 -3 -15 -4 3 -21 0 -38 -6
    -22 -8 -36 -7 -49 0 -16 10 -15 11 7 9 14 -2 33 5 43 15 22 22 33 22 40 -3z
    m95 -8 c3 -9 -4 -11 -25 -7 -47 11 -55 14 -49 24 8 12 69 -2 74 -17z m102 14
    c0 -11 -28 -22 -68 -26 -20 -2 -11 29 10 33 45 8 58 7 58 -7z m1440 5 c0 -6
    -4 -13 -10 -16 -5 -3 -10 1 -10 9 0 9 5 16 10 16 6 0 10 -4 10 -9z m525 -13
    c6 -4 -5 -8 -24 -8 -33 0 -34 1 -15 14 10 8 21 11 24 8 3 -4 10 -10 15 -14z
    m245 12 c0 -5 -5 -10 -11 -10 -5 0 -7 5 -4 10 3 6 8 10 11 10 2 0 4 -4 4 -10z
    m360 0 c0 -5 -5 -10 -11 -10 -5 0 -7 5 -4 10 3 6 8 10 11 10 2 0 4 -4 4 -10z
    m1780 0 c0 -5 -2 -10 -4 -10 -3 0 -8 5 -11 10 -3 6 -1 10 4 10 6 0 11 -4 11
    -10z m-1070 -10 c0 -5 -16 -10 -35 -10 -19 0 -35 5 -35 10 0 6 16 10 35 10 19
    0 35 -4 35 -10z m1197 4 c-3 -3 -12 -4 -19 -1 -8 3 -5 6 6 6 11 1 17 -2 13 -5z
    m-2657 -29 c0 -25 -14 -33 -25 -15 -3 6 -2 10 4 10 6 0 8 7 5 15 -4 8 -1 15 5
    15 6 0 11 -11 11 -25z m50 21 c0 -2 -7 -7 -16 -10 -8 -3 -12 -2 -9 4 6 10 25
    14 25 6z m800 -6 c0 -5 -7 -10 -15 -10 -8 0 -15 5 -15 10 0 6 7 10 15 10 8 0
    15 -4 15 -10z m-3006 -6 c9 -3 14 -10 11 -15 -3 -4 -12 -6 -21 -2 -8 3 -14 2
    -13 -3 4 -23 -2 -26 -16 -8 -8 10 -15 22 -15 27 0 9 32 9 54 1z m2876 -4 c0
    -5 -2 -10 -4 -10 -3 0 -8 5 -11 10 -3 6 -1 10 4 10 6 0 11 -4 11 -10z m1990 6
    c0 -11 -19 -15 -25 -6 -3 5 1 10 9 10 9 0 16 -2 16 -4z m30 0 c0 -3 -4 -8 -10
    -11 -5 -3 -10 -1 -10 4 0 6 5 11 10 11 6 0 10 -2 10 -4z m-4050 -16 c0 -5 -2
    -10 -4 -10 -3 0 -8 5 -11 10 -3 6 -1 10 4 10 6 0 11 -4 11 -10z m165 0 c3 -6
    -1 -13 -10 -16 -19 -8 -30 0 -20 15 8 14 22 14 30 1z m112 4 c-3 -3 -12 -4
    -19 -1 -8 3 -5 6 6 6 11 1 17 -2 13 -5z m1137 -8 c-3 -8 -15 -17 -27 -20 -21
    -5 -20 -4 3 14 30 24 31 24 24 6z m506 4 c0 -5 -10 -10 -22 -10 -19 0 -20 2
    -8 10 19 13 30 13 30 0z m-4560 -4 c0 -11 -33 -36 -40 -31 -15 9 1 35 21 35
    10 0 19 -2 19 -4z m2127 -10 c-3 -7 -1 -18 4 -23 6 -6 0 -14 -16 -23 -35 -19
    -53 -1 -37 35 12 27 59 38 49 11z m573 4 c0 -5 -4 -10 -10 -10 -5 0 -10 5 -10
    10 0 6 5 10 10 10 6 0 10 -4 10 -10z m537 2 c10 -6 10 -12 -2 -28 -13 -17 -14
    -17 -15 -1 0 9 -4 17 -10 17 -5 0 -10 5 -10 10 0 12 20 13 37 2z m2423 -12
    c14 -23 0 -39 -34 -38 -29 1 -32 3 -28 30 4 24 8 28 29 25 13 -2 28 -9 33 -17z
    m740 10 c-8 -5 -19 -10 -25 -10 -5 0 -3 5 5 10 8 5 20 10 25 10 6 0 3 -5 -5
    -10z m373 -21 c-6 -6 -17 -8 -24 -3 -9 5 -8 9 7 14 23 9 31 3 17 -11z m-5603
    0 c0 -7 -10 -9 -25 -7 -13 3 -24 2 -23 -1 0 -3 -1 -9 -2 -13 -1 -5 -4 -12 -5
    -18 -6 -24 -7 -24 -14 0 -4 14 -6 31 -3 38 5 15 72 16 72 1z m200 -11 c0 -6
    -7 -7 -16 -4 -9 3 -21 6 -27 6 -7 0 -7 4 2 9 16 10 41 4 41 -11z m504 16 c9
    -3 16 -17 16 -30 0 -28 -2 -28 -33 -11 -32 18 -39 31 -19 39 9 4 18 7 19 7 1
    1 8 -2 17 -5z m146 -9 c0 -9 7 -15 16 -13 10 2 19 -2 21 -8 5 -14 -79 -25 -88
    -11 -4 5 -9 5 -12 -2 -3 -7 -4 -7 -3 1 2 7 14 13 28 13 19 0 24 4 20 17 -2 10
    1 18 7 18 6 0 11 -7 11 -15z m406 -13 c-6 -11 -54 -4 -61 9 -3 4 3 6 15 4 11
    -2 22 1 26 6 4 7 10 7 16 1 6 -6 8 -15 4 -20z m2329 18 c3 -5 -1 -10 -9 -10
    -9 0 -16 5 -16 10 0 6 4 10 9 10 6 0 13 -4 16 -10z m482 -4 c-3 -7 0 -19 6
    -25 6 -6 8 -11 5 -11 -13 0 -38 32 -33 41 10 14 28 10 22 -5z m-3787 0 c0 -3
    -4 -8 -10 -11 -5 -3 -10 -1 -10 4 0 6 5 11 10 11 6 0 10 -2 10 -4z m3040 -11
    c0 -19 -24 -30 -41 -19 -9 5 -7 11 6 21 24 17 35 17 35 -2z m74 1 c-3 -8 -12
    -12 -21 -9 -12 5 -12 7 -1 14 20 13 28 11 22 -5z m513 8 c-3 -3 -12 -4 -19 -1
    -8 3 -5 6 6 6 11 1 17 -2 13 -5z m-2122 -14 c3 -5 1 -10 -4 -10 -6 0 -11 5
    -11 10 0 6 2 10 4 10 3 0 8 -4 11 -10z m1053 -6 c15 -3 20 -9 15 -17 -11 -18
    -12 -110 -1 -124 6 -7 6 -18 0 -29 -9 -17 -5 -53 7 -55 25 -6 59 -3 55 3 -3 4
    -1 8 5 8 24 0 20 -21 -6 -31 -25 -9 -55 -8 -128 4 -26 5 -32 34 -28 141 1 55
    -2 95 -9 103 -9 11 -3 12 28 8 22 -3 49 -8 62 -11z m115 10 c6 -7 -24 -44 -36
    -44 -5 0 -6 7 -3 16 3 8 2 12 -4 9 -11 -7 -14 8 -3 18 8 9 38 9 46 1z m2617
    -4 c0 -5 -7 -10 -16 -10 -8 0 -12 5 -9 10 3 6 10 10 16 10 5 0 9 -4 9 -10z
    m-3810 -10 c0 -5 -7 -10 -15 -10 -8 0 -15 5 -15 10 0 6 7 10 15 10 8 0 15 -4
    15 -10z m2793 -7 c-4 -10 -2 -14 5 -9 6 3 26 -3 44 -14 32 -19 32 -20 11 -26
    -28 -8 -31 -26 -3 -22 10 2 20 -1 22 -7 2 -5 -17 -11 -41 -13 -32 -2 -42 0
    -38 10 2 7 10 12 16 10 7 -1 10 2 6 8 -4 6 -1 18 7 27 12 15 10 16 -13 10 -30
    -8 -46 12 -26 32 15 15 17 14 10 -6z m-628 -3 c3 -5 2 -10 -4 -10 -5 0 -13 5
    -16 10 -3 6 -2 10 4 10 5 0 13 -4 16 -10z m-3740 -21 c5 -5 -11 -9 -39 -9 -42
    0 -47 2 -36 15 13 15 55 12 75 -6z m59 6 c3 -8 2 -15 -3 -15 -4 0 -6 -12 -3
    -27 3 -19 1 -25 -6 -18 -10 10 -16 36 -13 63 1 17 18 15 25 -3z m2086 5 c0 -5
    -5 -10 -11 -10 -5 0 -7 5 -4 10 3 6 8 10 11 10 2 0 4 -4 4 -10z m1172 -14 c-2
    -10 4 -16 18 -16 11 0 20 -4 20 -10 0 -5 -10 -10 -23 -10 -24 0 -52 34 -41 51
    9 15 29 4 26 -15z m-3862 4 c0 -5 -4 -10 -10 -10 -5 0 -10 5 -10 10 0 6 5 10
    10 10 6 0 10 -4 10 -10z m1068 -17 c50 1 57 -5 40 -32 -10 -16 -10 -23 0 -33
    6 -6 12 -17 12 -22 0 -6 -7 -1 -15 11 -9 13 -22 20 -30 17 -8 -4 -15 -1 -15 5
    0 6 7 11 15 11 8 0 15 4 15 8 0 5 -31 9 -70 8 -38 0 -70 -4 -70 -8 0 -7 15
    -12 32 -9 4 0 5 -5 2 -12 -3 -8 -15 -13 -27 -12 -17 2 -21 8 -19 26 4 39 10
    49 31 49 11 0 23 5 27 12 5 8 10 7 18 -4 7 -10 27 -15 54 -15z m258 11 c-3 -9
    -6 -25 -6 -35 0 -22 -19 -21 -67 3 -17 8 -26 8 -37 -1 -8 -7 -17 -8 -20 -3
    -11 18 18 30 67 28 32 -1 47 3 47 12 0 6 5 12 11 12 6 0 8 -7 5 -16z m2342 -2
    c2 -7 -3 -12 -12 -12 -9 0 -16 7 -16 16 0 17 22 14 28 -4z m305 12 c8 -8 -3
    -34 -14 -34 -5 0 -9 9 -9 20 0 19 11 26 23 14z m892 -4 c3 -5 1 -10 -4 -10 -6
    0 -11 5 -11 10 0 6 2 10 4 10 3 0 8 -4 11 -10z m-5165 -16 c0 -8 -4 -12 -10
    -9 -5 3 -10 10 -10 16 0 5 5 9 10 9 6 0 10 -7 10 -16z m500 12 c0 -3 -4 -8
    -10 -11 -5 -3 -10 -1 -10 4 0 6 5 11 10 11 6 0 10 -2 10 -4z m966 -23 c-4 -24
    -26 -29 -26 -5 0 10 3 22 6 25 11 10 22 -2 20 -20z m417 -4 c5 -20 5 -20 -13
    -4 -11 10 -17 22 -14 26 8 13 21 3 27 -22z m1897 21 c0 -5 -5 -10 -11 -10 -5
    0 -7 5 -4 10 3 6 8 10 11 10 2 0 4 -4 4 -10z m260 -5 c0 -8 -4 -15 -10 -15 -5
    0 -10 7 -10 15 0 8 5 15 10 15 6 0 10 -7 10 -15z m36 -22 c-11 -11 -19 6 -11
    24 8 17 8 17 12 0 3 -10 2 -21 -1 -24z m164 33 c0 -3 -4 -8 -10 -11 -5 -3 -10
    -1 -10 4 0 6 5 11 10 11 6 0 10 -2 10 -4z m314 -17 c-8 -14 -24 -10 -24 6 0 9
    6 12 15 9 8 -4 12 -10 9 -15z m201 0 c-4 -5 -1 -9 5 -9 7 0 10 -5 8 -12 -6
    -18 -55 -21 -61 -4 -8 20 13 32 24 15 6 -10 9 -8 9 9 0 13 4 20 10 17 6 -4 8
    -11 5 -16z m-4807 -2 c8 -10 6 -13 -7 -13 -11 0 -17 6 -14 13 3 7 6 13 8 13 1
    0 7 -6 13 -13z m333 -37 c27 -15 24 -26 -8 -24 -31 1 -38 14 -27 52 7 26 8 26
    12 4 2 -12 12 -27 23 -32z m319 46 c0 -11 -19 -15 -25 -6 -3 5 1 10 9 10 9 0
    16 -2 16 -4z m2440 0 c0 -3 -4 -8 -10 -11 -5 -3 -10 -1 -10 4 0 6 5 11 10 11
    6 0 10 -2 10 -4z m340 -17 c0 -5 -4 -9 -10 -9 -5 0 -10 7 -10 16 0 8 5 12 10
    9 6 -3 10 -10 10 -16z m1604 5 c3 -8 2 -12 -4 -9 -6 3 -10 10 -10 16 0 14 7
    11 14 -7z m-1307 -16 c-3 -8 -6 -5 -6 6 -1 11 2 17 5 13 3 -3 4 -12 1 -19z
    m-4092 2 c-3 -5 -11 -10 -16 -10 -6 0 -7 5 -4 10 3 6 11 10 16 10 6 0 7 -4 4
    -10z m3728 -5 c-3 -9 -8 -14 -10 -11 -3 3 -2 9 2 15 9 16 15 13 8 -4z m1727 5
    c12 -8 11 -10 -7 -10 -12 0 -25 5 -28 10 -8 13 15 13 35 0z m155 0 c3 -5 2
    -10 -4 -10 -5 0 -13 5 -16 10 -3 6 -2 10 4 10 5 0 13 -4 16 -10z m-5568 -20
    c-3 -11 0 -23 5 -27 6 -3 8 -1 5 4 -8 13 72 25 93 13 13 -8 13 -10 -3 -15 -9
    -4 -29 -5 -43 -2 -23 4 -25 2 -19 -25 7 -29 7 -29 -37 -26 -37 3 -43 6 -44 26
    -1 21 30 72 43 72 3 0 3 -9 0 -20z m179 -7 c-10 -10 -19 5 -10 18 6 11 8 11
    12 0 2 -7 1 -15 -2 -18z m799 18 c3 -5 1 -12 -4 -15 -12 -8 -41 3 -41 15 0 12
    37 12 45 0z m5582 -13 c0 -13 -1 -17 -4 -10 -3 6 -11 12 -19 12 -8 0 -14 5
    -14 10 0 6 8 10 18 10 11 0 18 -8 19 -22z m128 12 c-3 -5 -11 -10 -16 -10 -6
    0 -7 5 -4 10 3 6 11 10 16 10 6 0 7 -4 4 -10z m-6345 -10 c0 -5 -2 -10 -4 -10
    -3 0 -8 5 -11 10 -3 6 -1 10 4 10 6 0 11 -4 11 -10z m2235 -1 c11 -17 -1 -21
    -15 -4 -8 9 -8 15 -2 15 6 0 14 -5 17 -11z m2895 -11 c0 -13 -23 -5 -28 10 -2
    7 2 10 12 6 9 -3 16 -11 16 -16z m-5321 -2 c9 -10 8 -15 -4 -20 -10 -4 -15 1
    -15 14 0 24 4 25 19 6z m1021 5 c0 -17 -18 -21 -24 -6 -3 9 0 15 9 15 8 0 15
    -4 15 -9z m35 -1 c3 -5 2 -10 -4 -10 -5 0 -13 5 -16 10 -3 6 -2 10 4 10 5 0
    13 -4 16 -10z m741 -7 c3 -10 10 -26 15 -36 11 -21 -4 -57 -16 -38 -4 7 -7 27
    -8 46 -1 23 -5 31 -14 28 -7 -3 -13 0 -13 6 0 18 30 13 36 -6z m1088 -7 c-7
    -17 -34 -22 -34 -6 0 6 7 10 15 10 8 0 15 5 15 12 0 6 2 9 5 6 3 -3 3 -13 -1
    -22z m43 9 c0 -18 -19 -15 -25 3 -2 7 3 12 11 12 7 0 14 -7 14 -15z m2093 -20
    c0 -38 -17 -52 -47 -40 -15 6 -16 8 -3 13 21 7 40 35 35 50 -2 6 0 12 5 12 6
    0 10 -16 10 -35z m635 25 c-3 -5 -13 -10 -21 -10 -8 0 -14 5 -14 10 0 6 9 10
    21 10 11 0 17 -4 14 -10z m297 -10 c16 -5 30 -5 34 1 8 14 26 -1 20 -17 -3 -8
    1 -14 10 -14 8 0 12 -5 8 -11 -4 -8 -9 -8 -17 0 -6 6 -19 11 -28 11 -10 0 -19
    4 -21 9 -1 5 -16 13 -32 17 -23 6 -27 4 -21 -7 8 -12 6 -12 -8 0 -20 16 -12
    35 12 26 9 -4 28 -11 43 -15z m-5149 4 c3 -3 3 -12 0 -20 -7 -18 -53 -18 -53
    0 0 20 38 34 53 20z m107 -9 c0 -8 -8 -15 -17 -14 -11 0 -13 3 -5 6 6 2 10 9
    6 14 -3 5 0 9 5 9 6 0 11 -7 11 -15z m60 5 c0 -5 -5 -10 -11 -10 -5 0 -7 5 -4
    10 3 6 8 10 11 10 2 0 4 -4 4 -10z m1117 -21 c4 -15 9 -17 18 -9 10 8 15 8 20
    0 4 -7 -2 -14 -14 -17 -12 -3 -21 -12 -21 -20 0 -10 -5 -11 -17 -5 -18 9 -99
    8 -140 -3 -14 -3 -25 1 -31 11 -5 8 -23 16 -40 16 -31 1 -48 20 -36 40 5 7 13
    4 22 -8 13 -16 14 -17 9 -1 -5 12 -1 17 13 17 10 0 24 -8 29 -17 10 -17 10
    -16 11 2 0 19 6 20 86 17 76 -3 87 -6 91 -23z m389 -16 c-3 -7 -2 -12 2 -10 7
    2 12 -6 12 -24 0 -5 -4 -7 -10 -4 -6 3 -7 -1 -4 -10 5 -12 0 -15 -25 -13 -19
    1 -27 6 -21 12 6 6 0 18 -16 33 -25 23 -24 49 1 39 7 -2 16 2 19 11 6 14 9 14
    27 -3 11 -10 17 -24 15 -31z m1394 32 c0 -8 -4 -15 -10 -15 -5 0 -10 7 -10 15
    0 8 5 15 10 15 6 0 10 -7 10 -15z m329 6 c10 -7 11 -13 2 -30 -12 -22 -36 -28
    -46 -11 -3 6 1 10 10 10 12 0 15 6 10 20 -7 21 1 25 24 11z m100 -18 c0 -25
    -1 -25 -8 -8 -5 11 -7 23 -4 28 8 14 13 7 12 -20z m830 14 c9 15 81 3 81 -13
    0 -21 -22 -28 -35 -11 -7 10 -16 17 -20 17 -4 0 -2 -6 4 -14 9 -11 7 -15 -11
    -19 -26 -7 -24 -9 -31 28 -4 17 -4 24 0 16 3 -7 8 -9 12 -4z m741 -12 c0 -20
    -5 -25 -24 -25 -33 0 -43 18 -20 35 28 22 44 18 44 -10z m435 9 c17 -13 18
    -16 5 -24 -9 -6 -16 -6 -18 0 -5 13 -32 13 -32 1 0 -13 -34 -23 -54 -15 -13 5
    -14 9 -4 21 27 33 73 40 103 17z m-5191 -9 c-4 -8 -8 -15 -10 -15 -2 0 -4 7
    -4 15 0 8 4 15 10 15 5 0 7 -7 4 -15z m185 -14 c-15 -5 -22 6 -14 19 6 9 10 9
    16 -1 5 -8 4 -15 -2 -18z m2321 19 c0 -5 -5 -10 -11 -10 -5 0 -7 5 -4 10 3 6
    8 10 11 10 2 0 4 -4 4 -10z m380 -17 c0 -22 -2 -25 -10 -13 -13 20 -13 40 0
    40 6 0 10 -12 10 -27z m-3875 -4 c-8 -12 -35 -12 -35 0 0 11 22 20 33 14 4 -2
    5 -9 2 -14z m845 5 c0 -2 -12 -4 -26 -4 -14 0 -23 4 -20 9 6 8 46 4 46 -5z
    m93 9 c3 -5 -1 -13 -8 -20 -10 -10 -14 -9 -18 1 -8 21 15 37 26 19z m283 -12
    c0 -15 -3 -17 -13 -9 -7 6 -10 14 -7 19 9 15 20 10 20 -10z m236 -5 c20 -4 25
    -11 21 -26 -3 -11 0 -20 6 -20 6 0 11 5 11 11 0 8 4 8 14 0 10 -9 16 -9 21 -1
    5 7 11 8 19 1 6 -5 35 -9 64 -8 35 2 57 -2 64 -11 10 -11 0 -13 -58 -12 -112
    2 -124 1 -124 -14 0 -10 -16 -17 -46 -22 -38 -5 -48 -4 -56 10 -6 11 -16 15
    -30 10 -18 -5 -19 -3 -13 27 7 30 6 32 -9 20 -9 -7 -16 -20 -16 -28 0 -19 -24
    -11 -28 9 -2 9 6 18 18 21 17 4 20 11 15 26 -3 12 -3 21 2 21 19 0 52 -32 55
    -53 2 -16 11 -23 33 -25 l30 -3 -22 18 c-22 19 -31 82 -9 65 6 -5 23 -12 38
    -16z m1875 4 c1 -11 -2 -18 -8 -15 -11 7 -12 35 -1 35 4 0 8 -9 9 -20z m2033
    16 c0 -2 -7 -6 -15 -10 -8 -3 -15 -1 -15 4 0 6 7 10 15 10 8 0 15 -2 15 -4z
    m-5266 -15 c3 -4 -6 -6 -19 -3 -14 2 -25 6 -25 8 0 8 39 4 44 -5z m265 0 c9
    -6 10 -11 2 -15 -16 -10 -13 -24 7 -30 10 -3 6 -4 -8 -3 -19 2 -26 8 -28 30
    -3 28 3 33 27 18z m531 -21 c0 -27 3 -30 25 -25 14 3 35 7 48 10 19 4 23 0 23
    -18 -1 -16 6 -23 22 -25 23 -3 23 -4 6 -23 -9 -10 -29 -19 -44 -19 -23 0 -29
    5 -34 31 -4 22 -10 30 -21 26 -16 -7 -48 31 -38 46 3 5 -1 13 -8 18 -11 7 -10
    9 4 9 12 0 17 -8 17 -30z m207 24 c-3 -3 -12 -4 -19 -1 -8 3 -5 6 6 6 11 1 17
    -2 13 -5z m2556 -12 c-2 -6 6 -12 17 -12 11 0 20 -7 20 -15 0 -18 -1 -18 -34
    -5 -14 5 -30 19 -36 30 -10 19 -9 21 12 18 13 -2 22 -9 21 -16z m192 8 c3 -5
    2 -10 -4 -10 -5 0 -13 5 -16 10 -3 6 -2 10 4 10 5 0 13 -4 16 -10z m525 -20
    c0 -16 -4 -30 -10 -30 -5 0 -8 13 -7 30 3 39 17 39 17 0z m1045 20 c3 -5 -1
    -10 -10 -10 -9 0 -13 5 -10 10 3 6 8 10 10 10 2 0 7 -4 10 -10z m-5755 -4 c0
    -3 -4 -8 -10 -11 -5 -3 -10 -1 -10 4 0 6 5 11 10 11 6 0 10 -2 10 -4z m150 -6
    c0 -5 -4 -10 -10 -10 -5 0 -10 5 -10 10 0 6 5 10 10 10 6 0 10 -4 10 -10z
    m3268 -3 c8 -10 6 -13 -9 -14 -19 -2 -25 8 -12 20 8 9 9 9 21 -6z m1043 -10
    c-10 -9 -11 -8 -5 6 3 10 9 15 12 12 3 -3 0 -11 -7 -18z m110 -8 c-22 -24 -35
    -22 -25 4 5 14 33 28 43 21 1 -2 -6 -13 -18 -25z m-1481 6 c0 -8 -4 -15 -9
    -15 -5 0 -11 7 -15 15 -3 9 0 15 9 15 8 0 15 -7 15 -15z m-3175 -5 c-3 -5 -18
    -10 -33 -10 -21 0 -24 2 -12 10 20 13 53 13 45 0z m3245 6 c0 -3 -4 -8 -10
    -11 -5 -3 -10 -1 -10 4 0 6 5 11 10 11 6 0 10 -2 10 -4z m1874 -11 c-4 -8 -16
    -15 -28 -15 -20 1 -20 1 4 15 31 18 30 18 24 0z m-4716 -27 c-2 -17 -10 -33
    -18 -35 -12 -4 -12 -3 -1 5 10 7 10 14 2 29 -10 20 -6 33 11 33 5 0 8 -14 6
    -32z m62 10 c-18 -19 -22 -20 -30 -8 -7 11 -4 17 13 22 37 10 39 9 17 -14z
    m660 12 c0 -5 -4 -10 -10 -10 -5 0 -10 5 -10 10 0 6 5 10 10 10 6 0 10 -4 10
    -10z m2785 0 c3 -6 -1 -7 -9 -4 -18 7 -21 14 -7 14 6 0 13 -4 16 -10z m321 -1
    c9 -16 -18 -30 -33 -17 -7 6 -13 14 -13 19 0 13 38 11 46 -2z m68 -17 c-5 -15
    -4 -15 6 -2 9 11 13 12 17 3 2 -7 14 -13 24 -13 11 0 18 -4 14 -9 -6 -10 -34
    -12 -72 -5 -19 3 -20 7 -10 28 13 27 29 25 21 -2z m1946 24 c0 -3 -4 -8 -10
    -11 -5 -3 -10 -1 -10 4 0 6 5 11 10 11 6 0 10 -2 10 -4z m-6153 -21 c3 -9 13
    -15 22 -14 33 3 41 -2 41 -26 0 -28 -9 -32 -29 -12 -10 10 -12 8 -9 -7 1 -10
    11 -24 21 -30 14 -9 20 -7 28 6 8 14 15 15 35 8 43 -17 114 12 114 47 0 15 9
    16 30 3 12 -8 13 -12 1 -19 -10 -7 -8 -12 10 -24 12 -9 26 -14 31 -11 4 3 11
    -2 14 -10 9 -23 21 -20 27 6 6 21 7 21 27 3 19 -18 29 -52 11 -41 -5 3 -100 6
    -211 7 l-202 1 6 24 c13 49 -20 101 -38 62 -5 -10 -7 -10 -12 0 -3 6 -11 9
    -16 6 -7 -4 -8 -2 -4 4 4 7 23 12 42 12 19 0 34 5 34 10 0 16 20 12 27 -5z
    m539 0 c0 -5 4 -19 8 -30 5 -11 10 -26 12 -33 2 -7 8 -11 13 -8 5 3 11 -1 15
    -9 6 -17 37 -21 34 -4 -4 15 35 21 43 7 6 -9 11 -8 22 1 10 8 17 9 22 1 4 -7
    12 -7 26 0 24 14 25 40 0 40 -10 0 -21 6 -24 14 -4 10 4 13 31 11 45 -3 45 -2
    36 -17 -4 -6 -8 -24 -9 -39 -2 -24 1 -27 22 -26 13 1 28 8 32 16 6 10 19 12
    42 7 25 -5 35 -2 46 14 8 11 19 18 24 14 6 -4 6 -11 -2 -20 -16 -20 -5 -28 19
    -15 29 16 68 14 86 -4 16 -16 52 -20 60 -7 3 5 30 7 61 4 36 -3 60 0 70 8 13
    11 18 10 30 -6 8 -10 15 -22 15 -26 0 -4 -142 -6 -315 -5 -173 1 -315 -1 -315
    -5 0 -10 -56 -10 -88 -2 -14 4 -21 12 -18 20 3 8 4 14 2 14 -3 0 -11 3 -19 6
    -12 4 -14 0 -11 -14 5 -16 0 -19 -31 -18 -29 1 -39 8 -56 35 -25 41 -19 64 15
    55 18 -4 30 0 43 15 18 22 57 25 59 6z m1032 -6 c2 -4 13 -4 25 -1 22 5 22 5
    -2 -17 -13 -11 -30 -21 -38 -21 -7 0 -13 -5 -13 -11 0 -5 -5 -7 -10 -4 -6 4
    -8 10 -5 15 3 5 0 12 -7 16 -8 5 -6 10 8 15 17 7 17 8 -3 8 -13 1 -23 5 -23
    11 0 11 63 1 68 -11z m2402 0 c0 -5 -7 -9 -15 -9 -15 0 -20 12 -9 23 8 8 24
    -1 24 -14z m418 -5 c0 -23 -2 -24 -15 -11 -9 8 -12 20 -9 26 12 19 24 12 24
    -15z m882 22 c0 -3 -4 -8 -10 -11 -5 -3 -10 -1 -10 4 0 6 5 11 10 11 6 0 10
    -2 10 -4z m-3069 -16 c14 -8 19 -7 19 2 0 9 3 9 11 1 14 -14 2 -36 -14 -26 -6
    4 -24 6 -39 5 -27 -2 -36 7 -21 21 9 10 21 9 44 -3z m1889 -11 c35 -5 31 -23
    -6 -27 -28 -3 -31 0 -31 24 0 14 2 22 6 16 3 -5 17 -12 31 -13z m1620 11 c0
    -5 -5 -10 -11 -10 -5 0 -7 5 -4 10 3 6 8 10 11 10 2 0 4 -4 4 -10z m40 0 c0
    -5 -4 -10 -9 -10 -6 0 -13 5 -16 10 -3 6 1 10 9 10 9 0 16 -4 16 -10z m-5620
    -10 c0 -5 -11 -10 -24 -10 -14 0 -28 5 -31 10 -4 6 7 10 24 10 17 0 31 -4 31
    -10z m2170 -6 c0 -2 -7 -4 -15 -4 -8 0 -15 4 -15 10 0 5 7 7 15 4 8 -4 15 -8
    15 -10z m3240 7 c0 -5 -7 -14 -15 -21 -18 -15 -42 1 -31 19 8 13 46 15 46 2z
    m905 -1 c3 -5 -1 -10 -9 -10 -9 0 -16 5 -16 10 0 6 4 10 9 10 6 0 13 -4 16
    -10z m292 4 c-3 -3 -12 -4 -19 -1 -8 3 -5 6 6 6 11 1 17 -2 13 -5z m-6112 -14
    c3 -5 1 -10 -4 -10 -6 0 -11 5 -11 10 0 6 2 10 4 10 3 0 8 -4 11 -10z m1502 4
    c-3 -3 -12 -4 -19 -1 -8 3 -5 6 6 6 11 1 17 -2 13 -5z m3909 -4 c22 0 34 -5
    34 -14 0 -9 -15 -13 -55 -13 -36 0 -55 4 -55 12 0 17 12 26 28 20 7 -3 29 -5
    48 -5z m-5879 -26 c-9 -9 -28 6 -21 18 4 6 10 6 17 -1 6 -6 8 -13 4 -17z
    m1327 4 c-4 -5 -27 -7 -53 -5 -60 7 -61 8 -26 16 38 8 87 2 79 -11z m4264 10
    c15 -15 -25 -58 -56 -58 -30 0 -24 24 6 28 14 2 22 11 22 23 0 22 11 24 28 7z
    m94 -1 c14 -22 8 -24 -32 -14 -22 6 -40 14 -40 18 0 11 64 8 72 -4z m49 0 c-1
    -12 -15 -9 -19 4 -3 6 1 10 8 8 6 -3 11 -8 11 -12z m-2119 -14 c8 -10 13 -24
    12 -30 -1 -7 -2 -18 -3 -24 -1 -6 -10 -8 -23 -3 -38 12 -319 2 -371 -12 -11
    -4 -16 -1 -15 8 2 9 -11 12 -53 9 -57 -3 -91 14 -47 23 42 9 118 11 118 4 0
    -16 22 -7 41 15 15 18 20 20 28 8 13 -20 130 -33 147 -17 7 7 34 14 60 15 27
    1 53 6 58 11 15 15 31 12 48 -7z m1513 7 c3 -5 1 -10 -4 -10 -6 0 -11 5 -11
    10 0 6 2 10 4 10 3 0 8 -4 11 -10z m-5345 -30 c0 -32 -27 -54 -54 -44 -18 7
    -18 7 -10 28 3 9 10 13 15 11 4 -3 14 3 21 15 18 28 28 25 28 -10z m860 20 c0
    -5 -4 -10 -10 -10 -5 0 -10 5 -10 10 0 6 5 10 10 10 6 0 10 -4 10 -10z m4295
    -30 c3 5 12 7 20 4 8 -4 12 -10 9 -15 -7 -12 -94 -11 -94 1 0 6 -8 10 -17 10
    -15 0 -13 4 7 20 l25 20 22 -25 c12 -14 25 -21 28 -15z m89 27 c11 -8 17 -20
    14 -27 -5 -17 -34 -22 -35 -6 0 6 -4 19 -8 29 -9 20 4 22 29 4z m443 -12 c14
    -30 3 -40 -23 -20 -22 17 -104 20 -104 4 0 -5 -5 -7 -10 -4 -15 10 6 33 33 37
    76 11 92 8 104 -17z m-3982 3 c19 -9 28 -9 37 0 7 7 18 12 25 12 20 0 15 -38
    -6 -50 -25 -13 -178 -13 -186 0 -4 6 -24 8 -48 4 -31 -4 -38 -3 -27 5 8 6 41
    11 72 11 31 0 60 5 63 10 4 6 11 8 16 5 5 -4 9 -1 9 4 0 14 13 14 45 -1z m369
    -10 c7 12 74 5 92 -10 7 -5 28 -9 48 -10 20 -1 36 -4 36 -8 0 -12 -123 -5
    -146 8 -18 9 -24 9 -34 -3 -7 -8 -21 -15 -31 -15 -22 0 -25 24 -7 44 11 11 15
    11 24 -2 7 -10 13 -11 18 -4z m311 12 c3 -5 12 -7 20 -3 8 3 15 0 15 -6 0 -17
    27 -13 34 6 5 12 10 13 18 5 6 -6 18 -8 27 -5 11 4 10 1 -4 -10 -23 -19 -21
    -20 22 -8 23 7 35 6 43 -4 8 -9 6 -14 -6 -19 -23 -9 -284 -7 -284 2 0 4 7 15
    15 26 11 14 22 17 45 13 17 -4 30 -2 30 3 0 13 17 13 25 0z m1719 -9 c10 -11
    24 -17 32 -14 8 3 14 -1 14 -10 0 -22 -189 -30 -208 -8 -20 25 2 34 55 22 43
    -9 49 -8 62 9 17 25 23 25 45 1z m371 7 c20 -9 31 -9 45 0 12 7 21 8 25 2 3
    -6 19 -10 34 -10 15 0 33 -6 40 -12 10 -11 16 -8 30 11 14 18 22 21 37 14 23
    -12 113 -11 132 1 9 5 15 1 19 -14 6 -22 7 -22 19 -5 16 21 47 12 42 -12 -3
    -16 -25 -18 -271 -18 -275 0 -295 3 -244 38 27 19 57 21 92 5z m1845 -7 c14
    -28 14 -28 -32 -24 -178 14 -218 15 -218 5 0 -7 -37 -10 -106 -8 -58 1 -108
    -2 -110 -6 -7 -11 -44 14 -44 29 0 16 26 17 35 3 8 -13 74 -10 97 4 11 7 21 6
    32 -3 12 -10 27 -10 68 -2 29 6 97 10 151 8 53 -1 97 1 97 5 0 15 19 8 30 -11z
    m433 6 c14 -7 22 -18 19 -24 -7 -11 -81 -11 -101 1 -16 10 -14 29 2 23 8 -3
    20 -1 28 4 19 12 22 11 52 -4z m-3603 -17 c0 -11 -4 -20 -10 -20 -5 0 -10 9
    -10 20 0 11 5 20 10 20 6 0 10 -9 10 -20z m129 4 c19 -6 3 -20 -31 -28 -15 -3
    -30 -1 -33 4 -4 6 -15 8 -26 5 -14 -5 -19 -2 -19 13 0 17 6 19 48 15 26 -3 53
    -7 61 -9z m-1821 -25 c-16 -10 -94 -12 -84 -2 3 4 16 8 29 10 12 2 26 8 31 13
    6 6 15 5 23 -2 11 -9 12 -13 1 -19z m1182 16 c0 -8 -7 -15 -15 -15 -8 0 -15 7
    -15 15 0 8 7 15 15 15 8 0 15 -7 15 -15z m53 8 c-7 -2 -19 -2 -25 0 -7 3 -2 5
    12 5 14 0 19 -2 13 -5z m3947 -10 c0 -11 -29 -13 -150 -12 -134 2 -175 8 -137
    22 6 2 74 4 150 4 109 0 137 -3 137 -14z m-2405 -11 c18 -10 15 -11 -22 -12
    -39 0 -52 8 -38 22 8 8 38 3 60 -10z m105 -2 c0 -5 -15 -10 -32 -9 -31 1 -32
    1 -8 9 35 11 40 11 40 0z m-4403 -36 c-3 -3 -12 -4 -19 -1 -8 3 -5 6 6 6 11 1
    17 -2 13 -5z m188 -34 c3 -5 -1 -10 -10 -10 -9 0 -13 5 -10 10 3 6 8 10 10 10
    2 0 7 -4 10 -10z m1972 -75 c-4 -8 -2 -17 3 -20 11 -7 1 -37 -14 -47 -7 -5 -6
    -8 3 -8 8 0 11 -7 8 -20 -3 -11 -1 -20 3 -20 5 0 6 -10 3 -22 -3 -13 -6 -48
    -7 -78 -1 -49 -3 -55 -23 -58 -26 -4 -26 -4 -24 108 2 111 5 150 13 150 4 0 5
    7 2 15 -4 11 0 15 16 15 15 0 20 -4 17 -15z m593 -55 c0 -5 -6 -10 -14 -10 -8
    0 -18 5 -21 10 -3 6 3 10 14 10 12 0 21 -4 21 -10z m5 -50 c-3 -5 -12 -10 -20
    -10 -8 0 -17 5 -20 10 -4 6 5 10 20 10 15 0 24 -4 20 -10z m-10 -100 c-3 -5
    -10 -10 -16 -10 -5 0 -9 5 -9 10 0 6 7 10 16 10 8 0 12 -4 9 -10z m-9 -29 c-4
    -5 0 -12 6 -14 7 -3 3 -6 -9 -6 -16 -1 -21 3 -17 14 4 8 10 15 16 15 5 0 7 -4
    4 -9z m-599 -67 c-3 -3 -12 -4 -19 -1 -8 3 -5 6 6 6 11 1 17 -2 13 -5z m3 -49
    c10 -12 10 -15 -3 -15 -8 0 -17 7 -21 15 -3 8 -2 15 3 15 5 0 14 -7 21 -15z"></path>
    <path d="M2207 954 c3 -7 9 -14 14 -14 14 0 10 17 -5 23 -10 4 -13 1 -9 -9z"></path>
    <path d="M410 660 c0 -5 5 -10 10 -10 6 0 10 5 10 10 0 6 -4 10 -10 10 -5 0
    -10 -4 -10 -10z"></path>
    <path d="M2175 640 c3 -5 8 -10 11 -10 2 0 4 5 4 10 0 6 -5 10 -11 10 -5 0 -7
    -4 -4 -10z"></path>
    <path d="M3170 1366 c0 -19 5 -38 10 -41 11 -7 4 -25 -10 -25 -5 0 -11 8 -13
    18 -3 9 -5 -9 -6 -40 -1 -61 6 -69 32 -40 23 26 25 162 2 162 -10 0 -15 -10
    -15 -34z"></path>
    <path d="M3220 1374 c0 -22 4 -24 43 -23 23 0 59 -3 80 -6 33 -7 37 -5 37 14
    0 26 -6 28 -92 34 -66 5 -68 4 -68 -19z"></path>
    <path d="M3835 1331 c-3 -2 -5 -15 -5 -28 0 -12 -4 -23 -10 -23 -6 0 -10 -26
    -10 -57 1 -45 3 -54 11 -40 6 10 15 14 22 10 21 -13 37 -12 37 3 0 8 -4 14
    -10 14 -16 0 -12 27 5 34 11 4 13 11 5 30 -6 16 -6 27 0 31 6 4 10 2 10 -4 0
    -5 32 -11 70 -13 67 -3 70 -2 70 20 0 20 -5 22 -52 23 -29 1 -72 3 -96 3 -23
    1 -45 0 -47 -3z m2 -113 c-3 -8 -6 -5 -6 6 -1 11 2 17 5 13 3 -3 4 -12 1 -19z"></path>
    <path d="M3255 1320 c4 -6 11 -8 16 -5 14 9 11 15 -7 15 -8 0 -12 -5 -9 -10z"></path>
    <path d="M3370 1320 c-13 -8 -12 -10 3 -10 9 0 17 5 17 10 0 12 -1 12 -20 0z"></path>
    <path d="M2220 1290 c0 -5 5 -10 11 -10 5 0 7 5 4 10 -3 6 -8 10 -11 10 -2 0
    -4 -4 -4 -10z"></path>
    <path d="M3172 1217 c-18 -19 -22 -35 -22 -88 0 -99 9 -139 31 -139 18 0 19 9
    18 125 -1 69 -2 125 -3 125 -2 0 -12 -10 -24 -23z"></path>
    <path d="M2788 1183 c7 -3 16 -2 19 1 4 3 -2 6 -13 5 -11 0 -14 -3 -6 -6z"></path>
    <path d="M3706 1153 c-2 -3 -2 -11 1 -19 3 -10 10 -11 23 -4 9 5 19 7 22 5 2
    -2 30 -5 61 -6 78 -3 68 -22 -11 -21 l-62 0 0 -39 c0 -30 4 -39 18 -40 9 -1
    28 -2 41 -2 13 -1 26 -8 29 -15 3 -9 -4 -13 -19 -12 -41 4 -49 1 -49 -19 0
    -11 -6 -22 -12 -24 -10 -4 -10 -6 0 -6 6 -1 12 -7 12 -15 0 -8 -6 -17 -12 -19
    -7 -3 5 -6 28 -6 22 -1 45 -6 51 -12 7 -7 20 -8 34 -3 13 4 36 7 52 7 l27 0 0
    103 0 104 -25 0 c-26 0 -34 15 -12 23 6 2 9 8 4 12 -8 9 -193 16 -201 8z m168
    -199 c3 -8 2 -12 -4 -9 -6 3 -10 10 -10 16 0 14 7 11 14 -7z"></path>
    <path d="M1207 1063 c-16 -16 -4 -20 45 -17 28 2 57 -1 65 -7 9 -8 13 -8 13
    -1 0 6 -9 16 -19 22 -22 11 -94 14 -104 3z"></path>
    <path d="M3462 1010 c0 -14 2 -19 5 -12 2 6 2 18 0 25 -3 6 -5 1 -5 -13z"></path>
    <path d="M3608 983 c12 -2 32 -2 45 0 12 2 2 4 -23 4 -25 0 -35 -2 -22 -4z"></path>
    <path d="M3167 963 c-13 -12 -7 -71 7 -76 20 -8 26 2 26 45 0 36 -15 50 -33
    31z"></path>
    <path d="M3464 885 c0 -49 1 -71 3 -48 2 23 2 64 0 90 -2 26 -3 8 -3 -42z"></path>
    <path d="M2945 870 c-3 -6 5 -14 19 -19 28 -11 100 5 91 20 -8 12 -102 12
    -110 -1z"></path>
    <path d="M3480 851 c0 -16 3 -36 6 -45 12 -31 24 -16 24 29 0 33 -4 45 -15 45
    -10 0 -15 -10 -15 -29z"></path>
    <path d="M2660 834 c0 -9 5 -14 12 -12 18 6 21 28 4 28 -9 0 -16 -7 -16 -16z"></path>
    <path d="M2658 765 c-5 -26 5 -41 21 -31 10 6 2 56 -9 56 -4 0 -10 -11 -12
    -25z"></path>
    <path d="M3487 773 c-13 -13 -7 -53 8 -53 10 0 15 10 15 30 0 29 -9 38 -23 23z"></path>
    <path d="M3070 686 c0 -7 38 -46 45 -46 3 0 5 9 5 20 0 11 -4 20 -9 20 -5 0
    -16 3 -25 6 -9 3 -16 3 -16 0z"></path>
    <path d="M6760 510 c0 -5 5 -10 10 -10 6 0 10 5 10 10 0 6 -4 10 -10 10 -5 0
    -10 -4 -10 -10z"></path>
    <path d="M6810 510 c0 -5 7 -10 15 -10 8 0 15 5 15 10 0 6 -7 10 -15 10 -8 0
    -15 -4 -15 -10z"></path>
    </g>
</svg>